<svg id="logout" xmlns="http://www.w3.org/2000/svg" width="29.203" height="29.597" viewBox="0 0 29.203 29.597">
  <path id="Path_237" data-name="Path 237" d="M26.166,42.584A14.591,14.591,0,0,1,16.074,17.465a.715.715,0,0,1,1.014,1.007,13.156,13.156,0,1,0,18.2,0A.715.715,0,1,1,36.3,17.465,14.591,14.591,0,0,1,26.166,42.584Z" transform="translate(-11.586 -12.987)" fill="#dfdfdf"/>
  <path id="Path_238" data-name="Path 238" d="M31.714,27.507A.714.714,0,0,1,31,26.793v-14.8a.714.714,0,1,1,1.428,0v14.8A.714.714,0,0,1,31.714,27.507Z" transform="translate(-17.134 -11.28)" fill="#dfdfdf"/>
</svg>
