<svg id="Component_3_1" data-name="Component 3 – 1" xmlns="http://www.w3.org/2000/svg" width="110.266" height="62.819" viewBox="0 0 110.266 62.819">
  <g id="Group_81" data-name="Group 81" transform="translate(0 43.126)">
    <path id="Path_239" data-name="Path 239" d="M35.864,57.983a4.514,4.514,0,0,0-1.644-.844,8.379,8.379,0,0,0-2.354-.291H21.62a8.367,8.367,0,0,0-2.353.291,4.494,4.494,0,0,0-1.645.844,3.3,3.3,0,0,0-.954,1.328,4.575,4.575,0,0,0-.289,1.655v8.02a4.571,4.571,0,0,0,.289,1.655,3.3,3.3,0,0,0,.954,1.328,4.511,4.511,0,0,0,1.645.844,8.345,8.345,0,0,0,2.353.29h7.8l1.768,3.244.1.194h3.99l-.318-.556-1.7-2.968a4.61,4.61,0,0,0,2.807-1.232,3.961,3.961,0,0,0,1.036-2.8v-8.02a4.575,4.575,0,0,0-.289-1.655A3.3,3.3,0,0,0,35.864,57.983ZM20.052,60.944c0-.494.178-1.061,1.568-1.061H31.866c1.39,0,1.568.567,1.568,1.061v8.064c0,.494-.178,1.061-1.568,1.061H21.62c-1.39,0-1.568-.567-1.568-1.061Z" transform="translate(-16.379 -56.848)" fill="#ec1c24"/>
    <path id="Path_240" data-name="Path 240" d="M55.862,56.848h-.371v12.16c0,.494-.178,1.061-1.568,1.061H44.294c-1.39,0-1.568-.567-1.568-1.061V56.848H39.053V68.986a4.571,4.571,0,0,0,.289,1.655,3.3,3.3,0,0,0,.954,1.328,4.515,4.515,0,0,0,1.644.844,8.353,8.353,0,0,0,2.354.29H54.54a7.339,7.339,0,0,0,2.266-.294,3.5,3.5,0,0,0,1.451-.867,2.919,2.919,0,0,0,.731-1.348,6.852,6.852,0,0,0,.176-1.608V56.848h-3.3Z" transform="translate(-16.379 -56.848)" fill="#ec1c24"/>
    <path id="Path_241" data-name="Path 241" d="M80.564,58.085a4.679,4.679,0,0,0-1.913-.938,11.588,11.588,0,0,0-2.848-.3H61.22V73.1H75.8a11.57,11.57,0,0,0,2.848-.3,4.858,4.858,0,0,0,1.907-.911,3.362,3.362,0,0,0,1.051-1.545A6.488,6.488,0,0,0,81.9,68.3V61.8a7,7,0,0,0-.293-2.118A3.5,3.5,0,0,0,80.564,58.085Zm-15.671,1.8H75.8a6.657,6.657,0,0,1,1.282.1,1.58,1.58,0,0,1,.7.3,1.045,1.045,0,0,1,.333.526,3.563,3.563,0,0,1,.117,1v6.478a3.143,3.143,0,0,1-.115.924.925.925,0,0,1-.322.477,1.763,1.763,0,0,1-.709.285,6.643,6.643,0,0,1-1.282.1H64.893Z" transform="translate(-16.379 -56.848)" fill="#ec1c24"/>
    <path id="Path_242" data-name="Path 242" d="M126.265,72.528,116.019,57.015l-.11-.167h-2.537l-.11.166L102.95,72.527l-.269.4-.195-.372L99.077,66.07a4.318,4.318,0,0,0,2.654-1.256,4.029,4.029,0,0,0,.974-2.747v-1.1a4.564,4.564,0,0,0-.29-1.655,3.292,3.292,0,0,0-.953-1.328,4.51,4.51,0,0,0-1.645-.844,8.367,8.367,0,0,0-2.353-.291H83.916V73.1h3.673V66.185h7.58L98.7,72.9l.1.2h7.918l.109-.168,7.818-12.012,7.688,12.009.11.171h4.2ZM87.589,59.883h9.875c1.39,0,1.568.567,1.568,1.061v1.145c0,.494-.178,1.061-1.568,1.061H87.589Z" transform="translate(-16.379 -56.848)" fill="#ec1c24"/>
  </g>
  <g id="Group_82" data-name="Group 82" transform="translate(33.141)">
    <path id="Path_243" data-name="Path 243" d="M67.459,32.226,61.975,37.7l3.291,3.291,2.188-2.184,3.679,3.685-1.314,1.314a3.389,3.389,0,0,1-4.78,0L55.252,34.02a3.389,3.389,0,0,1,0-4.78C58.694,25.8,62.133,22.4,65.615,19.025c-.452-.553-1.708-1.414-5.2-1.665h0L51.9,25.884a8.14,8.14,0,0,0,0,11.492l9.788,9.787A8.092,8.092,0,0,0,67.2,49.535h.459a8.094,8.094,0,0,0,5.517-2.372l1.312-1.312,3.637,3.643.124.041h6.358C79.256,44.139,71.254,36.021,67.459,32.226Z" transform="translate(-49.521 -13.722)" fill="#231f20" fill-rule="evenodd"/>
    <path id="Path_244" data-name="Path 244" d="M82.962,25.884Q78.069,20.99,73.175,16.1a8.138,8.138,0,0,0-11.492,0L60.419,17.36a10.2,10.2,0,0,1,9.35,2.965l8.914,8.915a3.389,3.389,0,0,1,0,4.78l-3.927,3.928.459.463-.008.008,3.353,3.359,4.4-4.4A8.138,8.138,0,0,0,82.962,25.884Z" transform="translate(-49.521 -13.722)" fill="#ec1c24" fill-rule="evenodd"/>
  </g>
</svg>
