<svg id="Component_13_1" data-name="Component 13 – 1" xmlns="http://www.w3.org/2000/svg" width="144.062" height="80.417" viewBox="0 0 144.062 80.417">
  <g id="Group_87" data-name="Group 87" transform="translate(36.379 66.417)">
    <g id="Group_86" data-name="Group 86" transform="translate(0 0)">
      <text id="THRU" transform="translate(0 11)" fill="#fff" font-size="12" font-family="VenusRisingRg-Regular, Venus Rising"><tspan x="0" y="0">THRU</tspan></text>
    </g>
  </g>
  <g id="Group_88" data-name="Group 88">
    <path id="Path_245" data-name="Path 245" d="M406.065,339.114a5.5,5.5,0,0,1-5.5-5.5v-3.7h-9.119v5.656a12.658,12.658,0,0,0,12.658,12.658h19.277a12.7,12.7,0,0,0,2.231-.2l-8.541-8.918Z" transform="translate(-344.555 -289.401)" fill="#fff"/>
    <path id="Path_246" data-name="Path 246" d="M520.562,246.085a12.6,12.6,0,0,0,1.4-5.782V221.026A12.658,12.658,0,0,0,509.3,208.368h-7.464l3.839,9.119h1.665a5.5,5.5,0,0,1,5.5,5.5v15.358c0,.006,0,.012,0,.018l-4.184-4.184a4.093,4.093,0,0,0-5.789,0l-.6.6a4.093,4.093,0,0,0,0,5.789l13.408,13.408a4.093,4.093,0,0,0,5.789,0l.6-.6a4.093,4.093,0,0,0,0-5.789Z" transform="translate(-430.473 -194.13)" fill="#fff"/>
    <path id="Path_247" data-name="Path 247" d="M217.343,213.989a17.24,17.24,0,0,0-17.217,16.385A16.448,16.448,0,1,0,191,260.51h27.233a36.508,36.508,0,0,1,.207-46.482C218.079,214,217.713,213.989,217.343,213.989Z" transform="translate(-174.558 -198.536)" fill="#fff"/>
    <path id="Path_248" data-name="Path 248" d="M511.973,171.59a16.348,16.348,0,0,0-9.122,2.761,17.248,17.248,0,0,0-13.889-16.063A36.386,36.386,0,0,0,442.228,146.6a36.368,36.368,0,0,1,39.8,57.89h29.948a16.449,16.449,0,0,0,0-32.9Z" transform="translate(-384.357 -142.513)" fill="#fff"/>
  </g>
  <path id="Path_249" data-name="Path 249" d="M403.043,208.368a.345.345,0,0,0-.346.343h0v1.036H389.579a.345.345,0,1,0,0,.69h3.452v1.035h.69v-1.035h3.107v1.035h.692v-1.035H402.7v3.453a.344.344,0,0,0,.346.344H409.6a.345.345,0,0,0,.345-.344v-5.18a.345.345,0,0,0-.345-.343Zm-5.524,3.106v.346a.345.345,0,1,1-.69,0v-.346h-3.107v.346a.346.346,0,0,1-.692,0v-.346h-.69a.344.344,0,0,0-.344.344h0v4.143a.344.344,0,0,0,.344.346h5.525a.344.344,0,0,0,.344-.344h0v-4.143a.344.344,0,0,0-.343-.346h-.347Zm-2.071,1.383v.034a1.724,1.724,0,0,1,1.345,1.347h.035a.346.346,0,0,1,0,.691h-3.452a.346.346,0,0,1,0-.691h.035a1.725,1.725,0,0,1,1.347-1.347v-.034a.345.345,0,1,1,.69,0Zm-.346.689a1.039,1.039,0,0,0-.976.692h1.952A1.039,1.039,0,0,0,395.1,213.545Zm7.766,1.383a.858.858,0,0,0-.861.861v.864h1.38v-.864a1.549,1.549,0,0,1,.261-.861Zm2.069,0a.859.859,0,0,0-.86.857v.868h1.382v-.864a1.539,1.539,0,0,1,.261-.861Zm2.067,0a.859.859,0,0,0-.855.861v.864h1.38v-.864a1.547,1.547,0,0,1,.261-.861Zm2.072,0a.857.857,0,0,0-.856.859v.867h1.726v-1.726Zm-6.033,2.415a.345.345,0,0,0-.346.343v4.836h-1.036a.342.342,0,0,0-.344.339v.007a.342.342,0,0,0,.344.344h2.417v-.326a2.387,2.387,0,0,1,.835-1.823,1.382,1.382,0,1,1,2.474,0,2.393,2.393,0,0,1,.835,1.823v.326h1.38a.345.345,0,0,0,.345-.344v-5.18a.345.345,0,0,0-.345-.345Zm3.106,2.417a.69.69,0,1,0,0,1.38h0a.69.69,0,0,0,0-1.38ZM392.236,220.8l-.778,2.071h7.289l-.778-2.071Zm13.128.788a1.707,1.707,0,0,0-.6,1.3v.326h2.762v-.326a1.7,1.7,0,0,0-.6-1.3A1.381,1.381,0,0,1,405.363,221.586Zm-15.1.592a.345.345,0,0,0,0,.69h.451l.258-.692Zm8.96,0,.26.69h.45a.345.345,0,0,0,0-.69Zm-8.267,1.378a.689.689,0,0,0-.692.686v1.732a.345.345,0,0,0,.347.344h8.974a.343.343,0,0,0,.346-.341v-1.733a.689.689,0,0,0-.689-.689h0C396.479,223.552,393.755,223.559,390.96,223.556Zm12.082.344a.345.345,0,0,0-.344.345h0v4.488a.344.344,0,0,0,.346.344H409.6a.345.345,0,0,0,.345-.344v-4.487a.345.345,0,0,0-.343-.346h-6.562Zm-11.391.692a.346.346,0,1,1,0,.691h0a.346.346,0,0,1,0-.691Zm6.9,0a.346.346,0,1,1-.344.346.346.346,0,0,1,.344-.346Zm-4.142,0h1.381a.346.346,0,0,1,0,.691h-1.381A.346.346,0,0,1,394.412,224.592Zm-3.452,2.417v1.036a.343.343,0,0,0,.346.344h1.035a.343.343,0,0,0,.346-.344v-1.036Zm6.559,0v1.036a.343.343,0,0,0,.346.344H398.9a.343.343,0,0,0,.346-.344v-1.036Z" transform="translate(-342.82 -194.13)" fill="#fff"/>
</svg>
